<?xml version="1.0" standalone="no"?>
<!DOCTYPE svg PUBLIC "-//W3C//DTD SVG 20010904//EN"
 "http://www.w3.org/TR/2001/REC-SVG-20010904/DTD/svg10.dtd">
<svg version="1.0" xmlns="http://www.w3.org/2000/svg"
 width="171.000000pt" height="171.000000pt" viewBox="0 0 171.000000 171.000000"
 preserveAspectRatio="xMidYMid meet">
<metadata>
Created by potrace 1.11, written by Peter Selinger 2001-2013
</metadata>
<g transform="translate(0.000000,171.000000) scale(0.100000,-0.100000)"
fill="#000000" stroke="none">
<path d="M684 1626 c-93 -18 -135 -32 -214 -71 -196 -98 -344 -280 -402 -492
-29 -110 -29 -296 0 -406 60 -219 210 -399 417 -498 152 -73 149 -73 643 -77
l443 -3 35 35 35 35 -3 423 c-4 471 -5 472 -77 623 -99 207 -281 359 -498 416
-101 26 -282 33 -379 15z m331 -278 c81 -26 144 -68 209 -138 65 -71 102 -144
118 -237 13 -79 5 -117 -33 -145 -22 -16 -243 -57 -536 -99 -92 -13 -101 -22
-53 -62 44 -37 96 -52 180 -51 88 1 162 25 241 78 l53 36 24 -23 c35 -33 122
-166 122 -187 0 -25 -81 -94 -146 -125 -156 -74 -407 -85 -569 -24 -102 38
-210 129 -259 218 -76 141 -80 350 -7 501 31 65 114 157 179 198 131 84 329
108 477 60z"/>
<path d="M740 1092 c-40 -20 -77 -70 -86 -118 -11 -58 -1 -67 59 -59 69 9 238
43 244 49 10 10 -19 74 -45 99 -51 49 -112 59 -172 29z"/>
</g>
</svg>
