<?xml version="1.0" standalone="no"?>
<!DOCTYPE svg PUBLIC "-//W3C//DTD SVG 20010904//EN"
 "http://www.w3.org/TR/2001/REC-SVG-20010904/DTD/svg10.dtd">
<svg version="1.0" xmlns="http://www.w3.org/2000/svg"
 width="171.000000pt" height="171.000000pt" viewBox="0 0 171.000000 171.000000"
 preserveAspectRatio="xMidYMid meet">
<metadata>
Created by potrace 1.11, written by Peter Selinger 2001-2013
</metadata>
<g transform="translate(0.000000,171.000000) scale(0.100000,-0.100000)"
fill="#000000" stroke="none">
<path d="M670 1625 c-298 -63 -528 -282 -607 -575 -24 -90 -24 -291 0 -380 67
-249 244 -450 476 -539 124 -48 164 -51 608 -51 449 0 457 1 481 55 16 35 17
785 1 871 -25 134 -101 283 -197 386 -90 97 -243 187 -377 224 -82 22 -300 28
-385 9z m315 -269 c204 -54 354 -234 358 -429 3 -105 4 -105 -304 -155 -140
-23 -275 -44 -301 -48 -56 -7 -61 -22 -17 -58 96 -81 275 -70 419 27 l54 37
24 -23 c33 -31 122 -168 122 -188 0 -44 -141 -132 -260 -163 -99 -26 -269 -31
-360 -12 -204 43 -360 190 -399 374 -16 78 -14 219 5 283 52 176 193 310 370
353 76 18 225 20 289 2z"/>
<path d="M730 1088 c-52 -36 -74 -72 -74 -125 -1 -39 2 -48 18 -51 21 -5 259
37 277 48 17 11 4 53 -28 91 -51 60 -135 76 -193 37z"/>
</g>
</svg>
